<?xml version="1.0" encoding="UTF-8"?>
<svg width="40" height="40" version="1.1" viewBox="0 0 150 100"
  xmlns="http://www.w3.org/2000/svg">
  <path d="m87.598 15.029c-9.373-9.373-24.568-9.373-33.94 0l-5.658 5.657-5.657-5.656c-9.373-9.373-24.569-9.373-33.941 0-9.373 9.373-9.373 24.568 0 33.941l5.657 5.654 33.941 33.941 33.941-33.941 5.656-5.654c9.374-9.373 9.374-24.569 1e-3 -33.942zm-16.971 39.598-22.627 22.627-33.939-33.94c-6.249-6.248-6.249-16.379 0-22.629 6.249-6.248 16.379-6.248 22.627 0l11.312 11.315 11.314-11.314c6.248-6.248 16.379-6.248 22.627 0 6.248 6.25 6.248 16.379 0 22.629l-11.314 11.312z"/>
</svg>
